<svg version="1.0" xmlns="http://www.w3.org/2000/svg"
 width="40.000000pt" height="40.000000pt" viewBox="0 0 40.000000 40.000000"
 preserveAspectRatio="xMidYMid meet">

<g transform="translate(0.000000,40.000000) scale(0.015267,-0.012422)"
fill="#000000" stroke="none">
<path d="M1102 2717 l-102 -102 0 -448 0 -447 -195 0 -195 0 0 352 0 353 -105
-105 -105 -105 0 -600 0 -600 105 -105 105 -105 0 353 0 352 195 0 195 0 0
-448 0 -447 105 -105 105 -105 0 1208 c0 664 -1 1207 -3 1207 -1 0 -48 -46
-105 -103z"/>
<path d="M1400 1615 l0 -1210 105 105 105 105 0 447 0 448 33 20 c17 11 38 20
45 20 7 0 80 -39 162 -86 l150 -87 0 -296 0 -296 105 105 105 105 0 257 0 258
-102 59 c-57 33 -124 72 -150 88 l-47 28 149 85 150 85 0 180 0 180 -105 105
-105 104 -2 -218 -3 -218 -188 -109 c-104 -60 -190 -109 -193 -109 -2 0 -4
190 -4 423 l0 422 -105 105 -105 105 0 -1210z"/>
</g>
</svg>
